<svg xmlns="http://www.w3.org/2000/svg" xmlns:xlink="http://www.w3.org/1999/xlink" version="1.1" x="0px" y="0px" viewBox="0 0 500 625" enable-background="new 0 0 500 500" xml:space="preserve"><path fill-rule="evenodd" clip-rule="evenodd" d="M148.838,391.891c-2.807-1.196-2.789-2.957-2.004-5.203  c0.877-2.514,1.744-5.097,2.088-7.717c0.938-7.154-5.477-12.866-12.419-11.089c-2.569,0.659-4.949,2.039-7.511,2.755  c-1.206,0.338-2.89,0.307-3.901-0.308c-1.516-0.924-0.775-2.452-0.075-3.813c1.313-2.553,2.8-5.073,3.678-7.782  c2.188-6.76-3.167-13.636-10.241-13.207c-2.647,0.16-5.305,0.738-7.869,1.447c-2.248,0.62-3.57,0.023-4.406-2.335  c1.87-2.769,3.947-5.568,5.733-8.544c4.078-6.798-0.396-15.165-8.28-15.568c-2.256-0.116-4.546,0.225-6.783-0.01  c-1.25-0.133-3.152-0.777-3.432-1.63c-0.321-0.979,0.562-2.653,1.382-3.648c1.561-1.899,3.569-3.425,5.174-5.293  c4.562-5.312,1.934-14.505-4.744-16.47c-2.341-0.688-4.823-0.992-7.265-1.224c-2.071-0.198-3.604-0.749-3.86-3.706  c2.408-1.682,5.072-3.52,7.713-5.392c2.88-2.044,4.362-4.646,4.147-8.384c-0.357-6.204-1.644-8.329-7.527-10.614  c-1.716-0.668-3.631-0.867-5.283-1.646c-0.938-0.442-2.097-1.615-2.112-2.477c-0.016-0.879,1.073-2.094,1.988-2.607  c2.322-1.304,4.937-2.097,7.223-3.449c6.301-3.73,6.566-13.412,0.507-17.592c-1.852-1.278-4-2.119-5.907-3.326  c-1.115-0.706-2.021-1.74-3.464-3.02c1.516-0.948,2.402-1.744,3.438-2.1c2.33-0.802,4.769-1.281,7.099-2.079  c8.265-2.833,10.218-12.107,3.799-18.04c-1.354-1.251-2.984-2.203-4.355-3.439c-0.995-0.896-1.772-2.032-3.02-3.501  c1.584-0.688,2.589-1.352,3.678-1.551c2.218-0.405,4.489-0.513,6.726-0.827c9.084-1.276,12.836-10.005,7.392-17.284  c-1.228-1.64-2.826-3-4.078-4.625c-0.679-0.882-0.986-2.049-1.66-3.524c1.609-0.363,2.725-0.817,3.843-0.825  c2.261-0.017,4.54,0.074,6.782,0.361c4.495,0.575,7.373-1.586,9.758-5.104c2.197-3.242,2.55-6.421,0.584-9.825  c-1.131-1.957-2.326-3.881-3.377-5.88c-0.539-1.022-0.826-2.177-1.449-3.883c1.849-0.114,3.213-0.416,4.507-0.226  c1.818,0.268,3.568,0.958,5.369,1.367c9.579,2.175,15.832-4.328,13.161-13.707c-0.506-1.773-1.4-3.442-1.826-5.229  c-0.301-1.252-0.602-2.915-0.028-3.874c0.928-1.552,2.471-0.632,3.803,0.03c2.393,1.187,4.766,2.48,7.279,3.339  c6.569,2.243,14.129-4.151,13.138-11.022c-0.351-2.434-1.039-4.827-1.266-7.267c-0.098-1.055,0.268-2.644,1-3.143  c0.692-0.471,2.329-0.143,3.218,0.388c2.11,1.26,4.084,2.771,6.001,4.32c5.441,4.398,16.315-1.115,16.018-8.326  c-0.102-2.464-0.111-4.945,0.07-7.402c0.08-1.092,0.731-2.142,1.229-3.496c3.907,0.973,5.287,4.329,7.539,6.487  c3.245,3.108,6.656,3.687,10.751,2.425c3.874-1.193,6.51-3.43,7.162-7.598c0.319-2.031,0.504-4.093,0.985-6.085  c0.312-1.299,1.042-2.498,1.876-4.407c1.501,1.258,2.663,1.971,3.469,2.971c1.021,1.271,1.714,2.802,2.621,4.172  c2.453,3.708,5.619,5.841,10.369,5.178c4.779-0.666,7.999-2.993,9.421-7.657c0.6-1.966,1.041-3.997,1.839-5.877  c0.344-0.811,1.378-1.77,2.162-1.829c0.775-0.059,1.992,0.746,2.381,1.499c1.131,2.182,1.761,4.626,2.914,6.793  c3.97,7.456,13.272,8.106,18.169,1.269c1.426-1.993,2.359-4.334,3.747-6.361c0.614-0.898,1.861-2.02,2.7-1.928  c0.854,0.093,1.926,1.43,2.258,2.436c0.832,2.523,1.057,5.255,1.962,7.746c2.322,6.398,11.206,8.672,16.313,4.109  c2.275-2.033,3.977-4.698,6.097-6.925c0.602-0.63,1.9-1.166,2.631-0.939c0.727,0.226,1.49,1.405,1.627,2.264  c0.447,2.83,0.389,5.75,0.94,8.553c1.346,6.82,9.394,10.359,15.365,6.716c2.438-1.487,4.469-3.623,6.794-5.316  c2.173-1.585,4.102-0.627,4.128,2.105c0.023,2.461-0.375,4.924-0.495,7.39c-0.341,7.125,7.202,12.7,13.836,10.032  c2.632-1.058,4.902-2.985,7.452-4.292c0.954-0.489,2.404-0.762,3.326-0.387c1.566,0.636,1.561,2.112,0.987,3.674  c-0.777,2.118-1.462,4.286-1.973,6.482c-1.729,7.417,4.627,14.05,12.084,12.486c2.591-0.543,5.007-1.868,7.573-2.586  c1.038-0.291,2.944-0.307,3.256,0.238c0.578,1.012,0.66,2.663,0.259,3.805c-0.88,2.507-2.401,4.789-3.284,7.295  c-2.102,5.962,3.604,13.418,9.931,12.955c2.847-0.209,5.642-1.079,8.489-1.368c1.058-0.107,2.674,0.27,3.169,1.008  c0.519,0.772,0.38,2.467-0.146,3.365c-1.343,2.297-3.213,4.282-4.596,6.559c-3.378,5.561,0.363,13.709,6.839,14.7  c2.787,0.426,5.693,0.308,8.526,0.125c2.176-0.14,3.559,0.521,4.552,3.109c-1.996,2.001-4.165,4.092-6.239,6.272  c-6.229,6.548-3.882,15.128,4.855,17.581c2.157,0.606,4.477,0.629,6.639,1.219c1.259,0.343,3.021,1.065,3.328,2.014  c0.284,0.88-0.8,2.606-1.749,3.397c-1.884,1.566-4.211,2.59-6.139,4.112c-5.892,4.651-5.014,13.287,1.704,16.827  c1.987,1.048,4.168,1.733,6.266,2.57c1.674,0.669,3.934,0.822,4.098,3.145c0.2,2.817-2.471,2.854-4.214,3.707  c-1.662,0.812-3.416,1.446-5.032,2.336c-6.576,3.62-7.12,12.312-0.981,16.794c2.144,1.564,4.688,2.578,6.857,4.113  c1.023,0.727,2.287,2.176,2.172,3.146c-0.112,0.951-1.713,2.044-2.883,2.484c-2.297,0.863-4.801,1.164-7.125,1.969  c-7.247,2.511-9.335,10.8-4.045,16.368c2.379,2.505,5.156,4.629,7.809,6.977c-0.505,2.599-2.058,3.621-4.342,3.793  c-1.644,0.124-3.292,0.18-4.934,0.312c-4.188,0.337-7.327,1.898-9.073,6.179c-1.694,4.147-1.179,7.539,1.688,10.827  c1.994,2.286,3.846,4.696,5.545,6.786c-0.838,2.84-2.489,3.378-4.506,3.173c-1.636-0.166-3.254-0.495-4.886-0.703  c-5.08-0.646-8.707,1.232-11.106,5.891c-1.447,2.811-1.83,5.415-0.321,8.199c1.075,1.984,2.138,3.985,3.371,5.872  c1.021,1.557,2.55,3.033,1.158,4.947c-1.331,1.833-3.172,1.217-5.021,0.593c-2.133-0.721-4.342-1.28-6.561-1.665  c-6.771-1.173-12.729,4.729-11.41,11.48c0.545,2.79,1.797,5.451,2.825,8.136c0.534,1.39,1.291,2.978-0.294,3.828  c-1.089,0.584-2.779,0.604-4.008,0.238c-1.948-0.582-3.697-1.797-5.601-2.567c-5.353-2.168-8.834-1.31-12.772,2.915  c-1.802,1.933-2.712,4.075-2.147,6.745c0.469,2.211,0.752,4.469,1.35,6.643c0.495,1.798,1.499,3.613-0.446,5.037  c-2.347,1.716-3.698-0.447-5.312-1.584c-1.847-1.305-3.766-2.509-5.63-3.79c-5.311-3.655-15.67,1.857-14.966,8.425  c0.262,2.446,0.258,4.943,0.098,7.398c-0.071,1.089-0.658,2.88-1.318,3.033c-1.171,0.273-2.852-0.102-3.829-0.847  c-1.943-1.481-3.427-3.553-5.325-5.106c-6.255-5.113-15.012-2.122-16.788,5.698c-0.501,2.201-0.559,4.51-1.151,6.678  c-0.341,1.24-1.151,2.954-2.115,3.244c-0.881,0.264-2.544-0.851-3.346-1.797c-1.586-1.869-2.649-4.181-4.222-6.066  c-5.146-6.177-14.371-4.85-17.626,2.53c-0.99,2.246-1.389,4.759-2.43,6.977c-0.51,1.093-1.754,2.225-2.875,2.502  c-0.654,0.163-2.021-1.162-2.535-2.106c-1.273-2.338-2.051-4.953-3.375-7.258c-3.508-6.112-13.019-6.669-17.108-0.991  c-1.55,2.152-2.506,4.729-4.029,6.906c-0.716,1.024-2.255,2.29-3.191,2.125c-1.004-0.175-2.083-1.775-2.515-2.975  c-0.827-2.306-1.063-4.817-1.819-7.155c-2.233-6.904-11.125-9.313-16.486-4.399c-1.953,1.789-3.353,4.168-5.227,6.059  c-0.914,0.921-2.399,1.959-3.515,1.846c-2.019-0.204-2.003-2.188-2.107-3.889c-0.149-2.456-0.281-4.937-0.741-7.345  c-1.318-6.911-9.234-10.424-15.216-6.7c-2.255,1.403-4.104,3.453-6.334,4.909c-1.047,0.683-2.685,1.136-3.827,0.833  c-1.551-0.412-1.649-1.982-1.407-3.595c0.396-2.634,0.702-5.317,0.658-7.975c-0.112-6.604-7.437-11.491-13.564-8.9  C155.326,387.93,152.06,390.111,148.838,391.891z M186.087,276.187c-1.246,0.532-4.086,1.288-6.417,2.818  c-14.949,9.813-25.657,23.051-31.157,40.172c-3.433,10.685-1.284,20.283,6.602,28.455c7.321,7.588,15.292,14.4,24.21,20.037  c8.894,5.62,18.164,10.531,28.214,13.787c4.295,1.392,8.045,0.212,10.456-2.977c2.234-2.959,2.245-7.46-0.072-11.004  c-0.785-1.201-1.812-2.239-2.679-3.39c-11.471-15.225-17.999-32.228-18.471-51.405c-0.193-7.845,0.424-15.596,1.892-23.333  C200.036,282.116,194.799,276.11,186.087,276.187z M300.609,378.619c4.92-0.034,9.21-1.264,13.329-3.299  c17.019-8.406,31.497-20.036,43.79-34.438c1.597-1.87,3.23-3.78,4.436-5.904c3.338-5.884-0.435-13.298-7.131-13.777  c-2.115-0.152-4.389,0.778-6.474,1.532c-22.661,8.194-45.087,7.832-67.253-1.779c-3.573-1.548-6.948-3.555-10.521-5.108  c-5.651-2.457-11.438-0.592-14.453,4.454c-2.074,3.47-1.648,7.183-0.699,10.779c4.695,17.783,14.66,31.945,29.666,42.552  C289.963,376.928,295.236,378.432,300.609,378.619z M348.873,187.781c0.08,20.156-5.536,38.498-18.067,54.439  c-3.412,4.342-7.42,8.223-11.226,12.249c-4.316,4.568-5.022,9.695-1.944,14.552c2.601,4.104,6.7,5.32,11.119,5.507  c18.763,0.792,35.841-4.083,50.483-16.066c6.801-5.566,9.939-13.352,8.952-21.956c-1.966-17.107-7.32-33.272-15.845-48.274  c-2.527-4.45-5.476-8.706-8.63-12.74c-2.337-2.989-5.766-3.808-9.474-2.521c-3.688,1.281-5.259,3.641-5.359,8.028  C348.831,183.258,348.873,185.52,348.873,187.781z M117.86,244.969c-0.098,1.231-0.25,2.461-0.281,3.693  c-0.121,4.631,1.746,7.59,5.748,9.209c3.641,1.472,7.522,0.326,10.419-3.156c0.785-0.943,1.396-2.033,2.083-3.059  c9.766-14.566,22.595-25.456,38.717-32.47c8.568-3.728,17.513-5.926,26.746-7.048c5.006-0.608,8.517-3.202,10.009-7.948  c1.545-4.909-0.637-8.628-4.326-11.946c-9.121-8.205-19.814-13.249-31.618-15.969c-4.375-1.008-8.944-1.279-13.445-1.605  c-13.693-0.99-23.221,5.205-29.458,17.176C123.769,208.52,118.923,226.219,117.86,244.969z M302.372,162.429  c0.254-8.164-0.807-16.077-3.724-23.683c-3.835-9.991-10.851-16.364-21.483-18.305c-4.442-0.81-8.972-1.151-13.466-1.662  c-16.203-1.841-32,0.3-47.515,4.989c-1.54,0.466-3.119,1.172-4.372,2.159c-5.141,4.042-4.476,10.582,1.378,13.601  c1.623,0.837,3.464,1.292,5.249,1.769c18.543,4.956,33.783,15.05,45.477,30.155c4.371,5.646,7.717,12.117,11.254,18.368  c2.67,4.716,6.262,7.551,11.824,7.427c5.596-0.124,8.365-3.73,10.272-8.401C300.731,180.359,302.653,171.579,302.372,162.429z   M253.703,280.222c12.953,0.541,27.963-9.313,28.161-27.472c0.199-18.208-15.63-27.818-28.015-27.695  c-13.521,0.134-27.75,10.738-27.841,27.306C225.906,270.995,241.79,280.922,253.703,280.222z M320.956,312.086  c4.503-0.048,7.828-2.097,10.104-5.94c2.429-4.104,2.547-8.273-0.187-12.191c-3.43-4.918-8.272-8.119-14.14-9.075  c-8.848-1.441-15.824,7.807-12.443,16.12C306.479,306.382,315.172,312.162,320.956,312.086z"/><text x="0" y="515" fill="#000000" font-size="5px" font-weight="bold" font-family="'Helvetica Neue', Helvetica, Arial-Unicode, Arial, Sans-serif">Created by Ray Uribe</text><text x="0" y="520" fill="#000000" font-size="5px" font-weight="bold" font-family="'Helvetica Neue', Helvetica, Arial-Unicode, Arial, Sans-serif">from the Noun Project</text></svg>