<svg xmlns="http://www.w3.org/2000/svg" xmlns:xlink="http://www.w3.org/1999/xlink" version="1.1" x="0px" y="0px" viewBox="0 0 100 125" enable-background="new 0 0 100 100" xml:space="preserve"><path fill-rule="evenodd" clip-rule="evenodd" d="M100,49.975c0-1.555-6.771-1.826-7.633-4.18c-0.002-0.016-0.002-0.031-0.004-0.046  c0.395-2.612,6.973-4.008,6.67-5.528c-0.303-1.524-6.992-0.471-8.299-2.608c-0.008-0.021-0.012-0.039-0.018-0.059  c-0.104-2.634,6.059-5.281,5.467-6.711c-0.598-1.44-6.984,0.915-8.664-0.955c-0.002-0.004-0.004-0.008-0.006-0.012  c-0.66-2.563,4.908-6.385,4.045-7.676c-0.867-1.298-6.693,2.271-8.693,0.744c-1.146-2.386,3.568-7.22,2.471-8.317  c-1.104-1.104-6.119,3.532-8.379,2.427c-1.594-2.115,2.09-7.778,0.801-8.641c-1.299-0.868-5.312,4.656-7.746,4.014  c-1.975-1.763,0.531-8.036-0.902-8.629c-1.441-0.599-4.301,5.604-6.814,5.446c-2.279-1.345-1.045-7.985-2.566-8.287  c-1.531-0.306-3.125,6.335-5.619,6.672C51.609,6.755,51.527,0,49.975,0c-1.562,0-1.83,6.825-4.21,7.642  c-2.622-0.37-4.021-6.979-5.544-6.676c-1.532,0.305-0.462,7.058-2.643,8.317c-2.643,0.143-5.302-6.062-6.737-5.467  c-1.441,0.598,0.922,7.005-0.966,8.67c-2.564,0.66-6.385-4.908-7.675-4.045c-1.298,0.867,2.272,6.692,0.744,8.692  c-2.385,1.15-7.222-3.568-8.319-2.47c-1.104,1.104,3.533,6.12,2.426,8.38c-2.116,1.592-7.777-2.09-8.64-0.8  c-0.868,1.299,4.658,5.313,4.013,7.746c-1.764,1.974-8.036-0.533-8.629,0.9c-0.596,1.438,5.558,4.279,5.452,6.783  c-0.004,0.015-0.007,0.028-0.011,0.042c-1.361,2.265-7.979,1.036-8.281,2.557c-0.303,1.526,6.288,3.113,6.671,5.591  c-0.001,0.012-0.001,0.024-0.002,0.038C6.736,48.391,0,48.477,0,50.027c0,1.552,6.751,1.826,7.628,4.171  c0.002,0.021,0.002,0.045,0.005,0.066c-0.414,2.604-6.97,3.999-6.667,5.517c0.302,1.519,6.935,0.482,8.279,2.585  c0.012,0.043,0.023,0.087,0.036,0.13c0.027,2.619-6.055,5.242-5.465,6.663c0.591,1.429,6.882-0.874,8.62,0.916  c0.02,0.038,0.038,0.076,0.059,0.114c0.556,2.562-4.91,6.331-4.054,7.612c0.86,1.286,6.582-2.201,8.634-0.783  c0.026,0.031,0.051,0.065,0.078,0.097c1.05,2.406-3.579,7.171-2.489,8.259c1.092,1.093,6.009-3.427,8.303-2.456  c0.035,0.029,0.072,0.057,0.107,0.084c1.5,2.154-2.111,7.731-0.831,8.587c1.281,0.855,5.207-4.507,7.647-4.031  c0.049,0.026,0.1,0.05,0.149,0.077c1.868,1.833-0.571,7.982,0.849,8.569c1.422,0.59,4.222-5.423,6.707-5.443  c0.059,0.018,0.118,0.032,0.176,0.05c2.181,1.444,0.994,7.935,2.499,8.234c1.513,0.301,3.088-6.165,5.527-6.651  c0.052,0.005,0.106,0.007,0.159,0.012c2.433,0.973,2.531,7.595,4.07,7.595c1.541,0,1.824-6.654,4.125-7.604  c0.057-0.005,0.113-0.007,0.172-0.012c2.564,0.502,3.951,6.948,5.457,6.648c1.51-0.301,0.494-6.859,2.553-8.253  c0.072-0.021,0.145-0.04,0.217-0.062c2.6,0.059,5.197,6.05,6.607,5.466c1.426-0.59-0.857-6.84,0.9-8.601  c0.053-0.027,0.105-0.052,0.156-0.08c2.562-0.514,6.311,4.908,7.586,4.056c1.285-0.858-2.191-6.565-0.787-8.625  c0.035-0.028,0.07-0.058,0.105-0.087c2.406-1.04,7.164,3.579,8.254,2.491c1.094-1.095-3.443-6.024-2.453-8.313  c0.023-0.03,0.047-0.061,0.07-0.091c2.146-1.518,7.738,2.106,8.598,0.824c0.857-1.286-4.555-5.237-4.029-7.677  c0.02-0.033,0.035-0.068,0.053-0.102c1.811-1.905,8,0.557,8.592-0.868c0.592-1.431-5.498-4.253-5.449-6.749  c0.01-0.033,0.02-0.066,0.029-0.101c1.396-2.228,7.959-1.017,8.26-2.532c0.305-1.523-6.273-3.11-6.668-5.582  c0.002-0.018,0.002-0.035,0.004-0.054C93.275,51.611,100,51.524,100,49.975z M64.762,70.339c1.621-1.178,3.891-0.819,5.068,0.803  s0.82,3.893-0.803,5.07c-1.621,1.18-3.891,0.819-5.07-0.803C62.777,73.786,63.139,71.519,64.762,70.339z M79.924,68.67  c-0.17,0.231-0.367,0.448-0.611,0.626c-1.148,0.834-2.695,0.7-3.699-0.233l-4.096-4.1c-1.184-1.184-3.262-1.348-4.617-0.362  l-8.248,5.992c-1.354,0.984-1.84,3.011-1.08,4.502l2.598,5.094l-0.002,0.009c0.621,1.255,0.275,2.808-0.896,3.659  c-0.26,0.188-0.545,0.314-0.836,0.406c-2.703,0.664-5.527,1.023-8.436,1.023c-2.91,0-5.734-0.359-8.438-1.024  c-0.292-0.091-0.577-0.217-0.837-0.407c-1.149-0.834-1.5-2.346-0.922-3.588l2.633-5.163c0.76-1.492,0.273-3.52-1.081-4.503  l-8.249-5.993c-1.355-0.984-3.432-0.82-4.616,0.363l-4.042,4.046l-0.009-0.001c-1,0.979-2.585,1.13-3.756,0.278  c-0.244-0.177-0.439-0.392-0.609-0.622c-2.978-4.768-4.844-10.298-5.247-16.231c0.009-0.261,0.041-0.523,0.125-0.784  c0.439-1.351,1.768-2.151,3.128-1.986l5.725,0.909c1.654,0.262,3.431-0.827,3.948-2.42l3.151-9.696  c0.518-1.593-0.28-3.518-1.772-4.277l-5.097-2.594l-0.001-0.009c-1.24-0.649-1.873-2.109-1.426-3.486  c0.086-0.266,0.218-0.499,0.368-0.719c3.678-4.385,8.404-7.857,13.792-10.041c0.269-0.082,0.548-0.141,0.844-0.141  c1.421,0,2.592,1.018,2.855,2.36l0.905,5.726c0.262,1.655,1.846,3.008,3.521,3.008H55.09c1.674,0,3.26-1.353,3.521-3.008  l0.893-5.648l0.006-0.004c0.234-1.381,1.428-2.434,2.875-2.434c0.297,0,0.576,0.059,0.844,0.141  c5.389,2.184,10.115,5.656,13.795,10.041c0.148,0.22,0.279,0.455,0.365,0.719c0.439,1.352-0.166,2.78-1.363,3.446l-5.164,2.629  c-1.492,0.761-2.291,2.686-1.773,4.278l3.152,9.696c0.518,1.594,2.293,2.682,3.947,2.42l5.646-0.897l0.008,0.006  c1.385-0.204,2.756,0.604,3.203,1.982c0.084,0.26,0.115,0.522,0.125,0.782C84.768,58.373,82.902,63.901,79.924,68.67z   M30.167,71.142c1.178-1.623,3.447-1.982,5.07-0.803c1.622,1.178,1.981,3.447,0.804,5.069c-1.179,1.621-3.449,1.981-5.071,0.803  C29.347,75.033,28.987,72.763,30.167,71.142z M23.783,37.685c1.907,0.62,2.95,2.667,2.331,4.574c-0.62,1.906-2.667,2.95-4.573,2.33  c-1.907-0.619-2.951-2.667-2.332-4.574C19.829,38.108,21.876,37.065,23.783,37.685z M50,17.646c2.004,0,3.629,1.625,3.629,3.63  s-1.625,3.63-3.629,3.63c-2.005,0-3.63-1.625-3.63-3.63S47.995,17.646,50,17.646z M78.459,44.589  c-1.908,0.621-3.953-0.423-4.572-2.329c-0.621-1.907,0.422-3.954,2.328-4.574c1.908-0.619,3.955,0.424,4.574,2.33  C81.41,41.923,80.367,43.971,78.459,44.589z"/><text x="0" y="115" fill="#000000" font-size="5px" font-weight="bold" font-family="'Helvetica Neue', Helvetica, Arial-Unicode, Arial, Sans-serif">Created by Jon Daiello</text><text x="0" y="120" fill="#000000" font-size="5px" font-weight="bold" font-family="'Helvetica Neue', Helvetica, Arial-Unicode, Arial, Sans-serif">from the Noun Project</text></svg>