<?xml version="1.0" encoding="UTF-8" standalone="no"?>
<!-- Created with Inkscape (http://www.inkscape.org/) -->

<svg
   xmlns:dc="http://purl.org/dc/elements/1.1/"
   xmlns:cc="http://creativecommons.org/ns#"
   xmlns:rdf="http://www.w3.org/1999/02/22-rdf-syntax-ns#"
   xmlns:svg="http://www.w3.org/2000/svg"
   xmlns="http://www.w3.org/2000/svg"
   xmlns:sodipodi="http://sodipodi.sourceforge.net/DTD/sodipodi-0.dtd"
   xmlns:inkscape="http://www.inkscape.org/namespaces/inkscape"
   width="210mm"
   height="297mm"
   viewBox="0 0 210 297"
   version="1.1"
   id="svg6053"
   inkscape:version="0.92.1 r"
   sodipodi:docname="woodpecker.svg"
   inkscape:export-filename="/projects/rust-playground/woodpecker/logo/woodpecker.png"
   inkscape:export-xdpi="96"
   inkscape:export-ydpi="96">
  <defs
     id="defs6047" />
  <sodipodi:namedview
     id="base"
     pagecolor="#ffffff"
     bordercolor="#666666"
     borderopacity="1.0"
     inkscape:pageopacity="0.0"
     inkscape:pageshadow="2"
     inkscape:zoom="1.4142136"
     inkscape:cx="-160.50681"
     inkscape:cy="1021.967"
     inkscape:document-units="mm"
     inkscape:current-layer="layer1"
     showgrid="true"
     inkscape:object-paths="true"
     inkscape:snap-bbox="true"
     inkscape:window-width="1920"
     inkscape:window-height="1043"
     inkscape:window-x="0"
     inkscape:window-y="0"
     inkscape:window-maximized="1">
    <inkscape:grid
       type="xygrid"
       id="grid6139" />
  </sodipodi:namedview>
  <metadata
     id="metadata6050">
    <rdf:RDF>
      <cc:Work
         rdf:about="">
        <dc:format>image/svg+xml</dc:format>
        <dc:type
           rdf:resource="http://purl.org/dc/dcmitype/StillImage" />
        <dc:title />
      </cc:Work>
    </rdf:RDF>
  </metadata>
  <g
     inkscape:label="Layer 1"
     inkscape:groupmode="layer"
     id="layer1">
    <g
       id="g6136"
       transform="matrix(-0.13676733,0.17192389,-0.17192389,-0.13676733,52.989251,59.889039)">
      <path
         style="clip-rule:evenodd;fill-rule:evenodd;stroke-width:3.65714288"
         d="m -491.51953,359.66016 c -5.71245,0 -6.69246,24.96135 -15.39649,27.94922 -9.589,-1.35315 -14.70553,-25.52414 -20.27539,-24.41602 -5.60273,1.11542 -1.68981,25.81164 -9.66601,30.41602 -9.66584,0.52297 -19.39069,-22.16819 -24.63867,-19.99219 -5.26995,2.18697 3.37146,25.61787 -3.53321,31.70703 -9.37693,2.41372 -23.35064,-17.94906 -28.06836,-14.79297 -4.74697,3.17076 8.30881,24.47282 2.72071,31.78711 -8.72228,4.20571 -26.41194,-13.04876 -30.42383,-9.0332 -4.03748,4.03748 12.92152,22.38137 8.87305,30.64648 -7.73851,5.82217 -28.44153,-7.6435 -31.59766,-2.92578 -3.17439,4.75064 17.03462,19.43029 14.67578,28.32812 -6.4512,7.2192 -29.38795,-1.94768 -31.55664,3.29297 -2.17965,5.25899 20.32517,15.64919 19.9375,24.80664 -0.0151,0.0548 -0.0255,0.10132 -0.0391,0.15235 -4.97738,8.28344 -29.18067,3.78904 -30.28516,9.35156 -1.10808,5.58077 22.99579,11.38487 24.39649,20.44727 -0.004,0.0438 -0.004,0.0873 -0.008,0.13867 -3.24756,9.10994 -27.88086,9.42517 -27.88086,15.09375 0,5.67587 24.68914,6.67789 27.89649,15.2539 0.008,0.0767 0.006,0.16314 0.0176,0.24024 -1.51408,9.5232 -25.48898,14.62621 -24.38086,20.17773 1.10445,5.55519 25.36214,1.76213 30.27734,9.45313 0.0438,0.15723 0.0832,0.31742 0.13086,0.47461 0.0987,9.57804 -22.14402,19.17236 -19.98633,24.36914 2.1614,5.22606 25.16929,-3.19669 31.52539,3.34961 0.0733,0.13908 0.13812,0.27689 0.21485,0.41601 2.03338,9.3696 -17.95668,23.15309 -14.82618,27.83789 3.14518,4.70306 24.0717,-8.04909 31.57618,-2.86328 0.0952,0.11339 0.18651,0.23831 0.28515,0.35547 3.84,8.79908 -13.08783,26.22611 -9.10156,30.20508 3.9936,3.99726 21.97574,-12.53348 30.36523,-8.98242 0.12813,0.1062 0.26273,0.20761 0.39063,0.30664 5.48572,7.87752 -7.72023,28.27379 -3.03906,31.40429 4.6848,3.12688 19.04337,-16.483 27.96679,-14.74218 0.17915,0.0952 0.36589,0.1826 0.54493,0.28125 6.83157,6.70352 -2.08964,29.19112 3.10351,31.33789 5.20048,2.15769 15.44131,-19.83117 24.5293,-19.9043 0.21581,0.0658 0.43242,0.11588 0.64453,0.18164 7.97624,5.28091 3.6347,29.01979 9.13867,30.11328 9.15953,-7.97316 6.86694,-6.70962 13.9668,-8.72265 1.5809,-0.43484 3.22223,-0.64151 4.83008,-0.98243 1.94158,-0.41087 3.49865,0.2521 4.90429,1.5625 3.07242,2.86368 3.69765,5.39446 2.1211,9.28711 -0.55994,1.3846 -1.44396,2.6557 -1.86719,4.07227 -0.26612,0.89371 -0.25088,2.12409 0.17383,2.91601 0.6181,1.15272 1.77252,0.6012 2.7832,0.2129 1.9525,-0.74756 3.88713,-1.65837 5.91602,-2.05469 4.90926,-0.95917 9.20062,3.37501 8.34765,8.29883 -0.27998,1.61363 -0.6866,3.21845 -1.21094,4.76953 -0.45377,1.3446 -0.90132,2.68444 0.43165,3.65234 1.39184,1.01223 2.46538,-0.0994 3.59765,-0.8418 1.3722,-0.89665 2.82677,-1.66941 4.26953,-2.45117 2.02451,-1.09716 3.91877,-0.8198 5.96289,0.23242 3.38801,1.74456 4.75296,4.38203 4.28321,8.07618 -0.15141,1.18677 -0.3892,2.36305 -0.50977,3.55273 -0.1491,1.46676 0.24143,2.66797 2.30664,3.27734 1.51983,-1.23549 3.2732,-2.58123 4.93555,-4.03125 2.391,-2.08486 4.85736,-2.46037 7.87305,-1.22851 3.11308,1.26969 4.24727,3.55219 4.49218,6.59765 0.096,1.19407 0.13623,2.39239 0.22657,3.5879 0.1251,1.66091 0.86977,2.79083 2.75976,3.1582 1.70744,-1.92922 3.25065,-3.94969 5.07227,-5.67969 4.049,-3.84684 10.07829,-2.32858 11.90429,2.94141 0.58538,1.68998 0.80405,3.51128 1.43164,5.18164 0.31998,0.85081 1.11311,2.01639 1.80469,2.09765 0.70538,0.0836 1.76038,-0.83615 2.28906,-1.58007 1.11625,-1.57728 1.8529,-3.42724 2.99024,-4.98633 3.25927,-4.46423 9.58045,-4.06912 12.21289,0.71289 0.64717,1.17513 1.10874,2.45158 1.69922,3.66016 0.62029,1.2675 0.64681,3.20996 2.69531,3.06445 1.68926,-0.11928 1.80061,-1.76316 2.28711,-2.98047 0.60866,-1.52564 1.10707,-3.11169 1.86914,-4.55664 2.57427,-4.88527 8.85414,-5.52486 12.23633,-1.24024 1.1068,1.40202 1.85146,3.09481 2.99023,4.46485 0.57521,0.6901 1.83079,1.47784 2.47071,1.27148 0.6901,-0.22325 1.21344,-1.50437 1.46289,-2.41992 0.42905,-1.57217 0.44606,-3.25954 0.88672,-4.82812 1.78382,-6.35347 8.02348,-8.05895 12.78515,-3.5293 1.58529,1.50822 3.10543,3.08562 4.56055,4.53711 1.88198,-0.72212 2.36339,-1.72817 2.26172,-3.31055 -0.13304,-2.06014 -0.22008,-4.17447 0.0898,-6.20117 0.72064,-4.70944 6.6475,-7.42912 10.69141,-4.97266 1.65582,1.0057 3.09917,2.36517 4.76953,3.3418 0.65302,0.38249 1.88588,0.485 2.44726,0.10742 0.53667,-0.35996 0.81025,-1.53529 0.73243,-2.30469 -0.21015,-2.07031 -0.84412,-4.10351 -0.9961,-6.17382 -0.33669,-4.60097 5.08636,-8.74926 9.42188,-7.22071 1.82235,0.64211 3.48162,1.74681 5.30468,2.38672 0.83047,0.29174 2.03166,0.23282 2.76758,-0.1875 0.39632,-0.22688 0.38349,-1.61238 0.17188,-2.36719 -0.52212,-1.86599 -1.48599,-3.62364 -1.88086,-5.50781 -1.13732,-5.42268 3.68649,-10.04441 9.08008,-8.78711 1.59692,0.37161 3.17465,0.87055 4.71484,1.43555 1.13588,0.41741 2.20939,0.42002 2.67188,-0.71875 0.27269,-0.67045 0.0743,-1.72424 -0.28125,-2.41797 -0.95045,-1.85435 -2.35173,-3.50593 -3.1211,-5.41992 -1.94015,-4.82419 2.11367,-10.30849 7.29492,-10.06055 1.79326,0.0873 3.58343,0.37449 5.37305,0.35938 1.98669,-0.0189 2.68386,-1.42174 1.53125,-3.00196 -1.23113,-1.69069 -2.7839,-3.1685 -3.86523,-4.9414 -2.64917,-4.34207 -0.0766,-10.19309 4.88281,-11.17188 2.03833,-0.40085 4.16275,-0.35855 6.2207,-0.68359 0.62466,-0.0996 1.48215,-0.65491 1.64649,-1.1836 0.16507,-0.53159 -0.22547,-1.47627 -0.6836,-1.91406 -1.61945,-1.54163 -3.55676,-2.77922 -5.03515,-4.43359 -3.31818,-3.71377 -1.66626,-10.17279 2.98632,-11.86133 1.81145,-0.65809 3.79812,-0.82271 5.63282,-1.42773 0.73155,-0.24144 1.70387,-1.02157 1.77148,-1.64258 0.0669,-0.61009 -0.74737,-1.51638 -1.40039,-1.96289 -1.47402,-1.00933 -3.17765,-1.68762 -4.62695,-2.72461 -4.97181,-3.56107 -4.49813,-10.32594 0.92383,-13.21289 1.57582,-0.83845 3.35272,-1.29672 4.93945,-2.11914 0.54758,-0.2829 1.13274,-1.16687 1.08984,-1.73047 -0.0429,-0.57011 -0.74032,-1.32206 -1.33008,-1.57227 -1.36711,-0.58031 -2.84377,-0.90158 -4.27343,-1.33789 -3.39163,-1.03408 -5.08405,-3.37437 -5.56836,-6.84961 -0.48213,-3.45415 1.06919,-5.75719 3.76562,-7.54101 0.99625,-0.65957 2.10894,-1.16376 3.03321,-1.90625 0.7272,-0.58609 1.24534,-1.42996 2.16015,-2.52149 -1.38821,-0.6065 -2.2585,-1.13846 -3.20312,-1.36523 -1.44857,-0.34968 -2.94885,-0.48474 -4.42578,-0.7168 -3.03094,-0.47414 -4.65785,-2.38988 -5.5254,-5.20703 -0.91771,-2.97785 -0.49643,-5.45865 1.76368,-7.81836 1.56928,-1.63767 4.00923,-2.64127 4.71679,-5.48242 -0.98462,-0.36216 -1.74691,-0.83633 -2.54101,-0.89453 -1.78671,-0.13191 -3.591,-0.12486 -5.38281,-0.0508 -5.24378,0.21596 -9.25288,-7.69181 -6.05469,-11.64844 1.12642,-1.39404 2.22436,-2.82891 3.14062,-4.36328 0.38612,-0.64649 0.62571,-1.8366 0.28321,-2.33985 -0.36287,-0.53215 -1.51993,-0.79799 -2.28711,-0.72656 -1.77436,0.16505 -3.51323,0.66481 -5.28321,0.91992 -4.99654,0.72065 -9.64671,-4.77774 -8.01562,-9.55468 0.62466,-1.82744 1.56455,-3.5528 2.42773,-5.29297 0.48151,-0.96862 1.15009,-2.09079 0.0215,-2.76563 -0.69738,-0.41888 -1.90597,-0.1993 -2.81641,0.0195 -1.2995,0.30977 -2.51342,0.96 -3.80273,1.32813 -5.71435,1.62736 -9.94359,-1.30914 -10.24024,-6.39844 6.55806,-6.55316 26.10938,-7.35783 26.10938,-12.41016 l -0.002,-0.002 c 0,-5.68686 -24.7616,-6.67818 -27.91406,-15.28711 -0.007,-0.0586 -0.008,-0.11316 -0.0156,-0.16797 1.44457,-9.55245 25.50265,-14.6579 24.39453,-20.21679 -1.10811,-5.57348 -25.57168,-1.72181 -30.35156,-9.53711 -0.0291,-0.0767 -0.0445,-0.14152 -0.0664,-0.21485 -0.38035,-9.63292 22.15916,-19.31522 19.99414,-24.54492 -2.18698,-5.26632 -25.54155,3.34668 -31.68555,-3.49219 -0.007,-0.0151 -0.0143,-0.0294 -0.0215,-0.043 -2.41372,-9.37327 17.94908,-23.35092 14.79297,-28.07227 -3.17074,-4.74697 -24.47674,8.30514 -31.79102,2.7207 -4.19109,-8.72594 13.04899,-26.40412 9.03711,-30.41601 -4.03749,-4.03748 -22.37938,12.91614 -30.64453,8.875 -5.82932,-7.73488 7.6437,-28.44547 2.92969,-31.60157 -4.75064,-3.17442 -19.42666,17.02757 -28.32813,14.67969 -7.22286,-6.44753 1.94183,-29.38795 -3.29883,-31.55664 -5.27006,-2.19062 -15.7295,20.49383 -24.91992,19.91602 -8.33461,-4.91887 -3.82033,-29.20219 -9.38281,-30.30664 -5.59911,-1.11909 -11.42987,23.16796 -20.55078,24.40039 -9.15016,-3.19631 -9.4491,-27.90039 -15.125,-27.90039 z m -45.21094,62.89257 c 5.19681,0 9.47956,3.723 10.44141,8.63086 l 3.30859,20.94141 c 0.95819,6.05257 6.75125,11 12.87695,11 h 37.28907 c 6.12208,0 11.92243,-4.94743 12.87695,-11 l 3.26562,-20.65625 0.0215,-0.0156 c 0.8558,-5.0505 5.22372,-8.90039 10.51562,-8.90039 1.08617,0 2.10583,0.21576 3.08594,0.51563 19.70835,7.9872 36.99097,20.68413 50.44922,36.7207 0.54127,0.80459 1.02144,1.66343 1.33594,2.62891 1.6055,4.94445 -0.60678,10.16787 -4.98438,12.60351 l -18.88672,9.61524 c -5.45642,2.78309 -8.37683,9.82236 -6.48242,15.64453 2.16994,11.38149 6.97572,14.59237 3.50977,23.75977 -1.66163,4.27808 -3.20743,5.213 -7.71875,5.47265 -2.71824,0.15636 -4.61125,-0.92127 -6.09766,-3.01562 -1.36131,-1.92049 -2.69679,-3.85633 -3.91992,-5.60743 -2.15032,0.18618 -2.55131,1.30062 -2.69531,2.80665 -0.16872,1.77577 -0.39033,3.58086 -0.89063,5.2832 -1.42892,4.8562 -8.11369,6.76666 -11.97656,3.44922 -1.3584,-1.16716 -2.46865,-2.62658 -3.84961,-3.76172 -0.72355,-0.5963 -1.94043,-1.23944 -2.65234,-1.00586 -0.6203,0.2036 -1.08879,1.58712 -1.18555,2.49609 -0.17121,1.62671 0.0765,3.2911 -0.008,4.93164 -0.29307,5.73317 -6.37688,8.98694 -11.32032,6.02149 -2.16411,-1.2988 -4.1993,-2.80813 -6.21289,-4.16797 -1.7131,0.60794 -2.14812,1.56837 -1.69726,3.20312 0.51556,1.86452 0.93437,3.79775 1.05078,5.72266 0.312,5.14413 -4.68771,9.03833 -9.60352,7.44727 -1.96996,-0.63848 -3.80169,-1.71905 -5.6582,-2.67383 -0.98971,-0.50918 -2.10151,-1.04972 -2.77344,0.0527 -0.44749,0.7352 -0.47027,1.96089 -0.22461,2.83789 0.52067,1.86308 1.5247,3.5928 2.00391,5.46094 1.29222,5.04816 -2.86208,9.71338 -8.06445,9.03125 -1.90522,-0.25013 -3.78317,-0.87986 -5.61133,-1.51758 -1.63329,-0.57086 -2.9135,-0.58418 -3.7832,1.45703 v 0.002 c 1.29441,2.343 2.88065,4.71805 3.9707,7.30468 1.88417,4.4555 -1.67028,9.78203 -6.47266,9.86329 -1.93289,0.032 -3.8834,-0.19052 -5.79883,-0.47852 -1.17293,-0.17597 -2.31551,-0.10445 -2.61523,1.02344 -0.22035,0.83047 0.11075,2.02181 0.60742,2.7832 1.0588,1.62164 2.54812,2.96565 3.56836,4.60547 2.70807,4.35005 0.15455,10.10604 -4.87109,11.06445 -1.75109,0.33442 -3.55582,0.43059 -5.3418,0.53907 -1.23696,0.0756 -2.67959,0.065 -16.4474,-6.13108 -13.76782,-6.19608 -21.36317,-5.59766 -25.69322,-1.27127 l -14.78321,14.79688 -0.0332,-0.004 c -3.65715,3.58035 -9.45378,4.13346 -13.73633,1.01758 -0.89231,-0.64732 -1.60483,-1.43426 -2.22656,-2.27539 -10.89097,-17.43727 -17.71563,-37.66153 -19.18945,-59.35938 0.034,-0.95452 0.14994,-1.91267 0.45703,-2.86719 1.60547,-4.94078 6.46574,-7.86515 11.43945,-7.26171 l 20.9375,3.32421 c 6.04891,0.95819 12.54675,-3.02572 14.4375,-8.85156 l 11.52344,-35.45898 c 1.89437,-5.8258 -1.024,-12.86487 -6.48047,-15.64063 l -18.64063,-9.48633 -0.004,-0.0351 c -4.53487,-2.37351 -6.8496,-7.71217 -5.21485,-12.74805 0.31446,-0.97281 0.79715,-1.82627 1.34571,-2.63086 13.45096,-16.03657 30.73477,-28.7335 50.43945,-36.7207 0.98377,-0.3001 2.0054,-0.51563 3.08789,-0.51563 z m 45.30274,1.64258 c 7.32892,0 13.27148,5.94285 13.27148,13.27539 0,7.33259 -5.94256,13.27539 -13.27148,13.27539 -7.33259,0 -13.2754,-5.9428 -13.27539,-13.27539 0,-7.33254 5.9428,-13.27539 13.27539,-13.27539 z m -99.82032,72.63086 c 1.30588,0.0168 2.6318,0.22916 3.93946,0.6543 6.97417,2.26745 10.78917,9.75239 8.52539,16.72656 -2.26742,6.97055 -9.75411,10.78894 -16.72461,8.52149 -6.97418,-2.26375 -10.79109,-9.75239 -8.52735,-16.72657 1.84231,-5.66648 7.1283,-9.24846 12.78711,-9.17578 z m 199.63282,0.006 c 5.66066,-0.0708 10.94778,3.51029 12.78711,9.17383 2.27106,6.97417 -1.54365,14.46257 -8.52149,16.72266 -5.25984,0.68201 -3.69441,1.27853 -8.77344,-0.20313 -3.64284,-1.37279 -6.65104,-4.32315 -7.94726,-8.31445 -2.27108,-6.97418 1.54312,-14.45911 8.51367,-16.72656 1.30834,-0.42446 2.6351,-0.636 3.94141,-0.65235 z m -15.22657,48.40039 c 0.8959,0.0227 1.79037,0.13365 2.68555,0.20508 13.63483,0.77299 26.50567,4.29762 38.63086,10.61328 8.70523,4.53551 13.21015,11.46445 12.49023,21.42188 -0.23706,3.2731 -0.43299,6.59585 -1.16601,9.77734 -1.97798,8.58376 -5.64669,16.35946 -11.61328,22.99219 -2.41284,2.68259 -5.11772,4.26807 -8.6875,3.14453 -3.45123,-1.08495 -5.33717,-3.63702 -5.7793,-7.27734 -0.81589,-6.71418 -2.41406,-13.21863 -5.125,-19.44922 -5.10055,-11.7238 -13.01905,-21.05448 -23.61133,-28.15625 -0.74611,-0.49958 -1.53889,-0.94285 -2.22461,-1.51368 -2.53202,-2.1067 -3.36536,-4.92846 -2.29492,-7.57617 1.17732,-2.91023 3.32768,-4.2697 6.69531,-4.18164 z m -58.32226,21.34766 c 2.26623,-0.0161 4.61679,0.36829 7.04492,1.14844 12.45025,3.99957 22.07695,11.78546 29.21289,22.65625 1.11258,1.69511 1.66196,3.7619 2.04883,4.66796 0.056,6.33529 -4.31197,10.14349 -9.57031,9.14649 -5.62628,-1.06742 -11.26198,-1.51717 -16.9668,-1.37695 -13.9454,0.34321 -26.30938,5.09003 -37.38086,13.43164 -0.83701,0.6305 -1.59147,1.37839 -2.46484,1.94921 -2.57719,1.68511 -5.8502,1.67729 -8.00196,0.0527 -2.31908,-1.75325 -3.17825,-4.48019 -2.16601,-7.60352 2.36776,-7.30828 5.93858,-14.0499 10.02539,-20.51757 4.0992,-6.48511 9.05434,-12.28171 14.57226,-17.60547 4.08556,-3.94257 8.66078,-5.91378 13.64649,-5.94922 z m 143.04101,44.6582 c 1.61481,0.0569 3.24726,0.8859 4.53321,2.52149 0.71774,0.91116 1.23144,2.05786 1.57031,3.17773 3.4098,11.28238 4.96768,22.77002 3.62891,34.55273 -0.37159,3.26801 -0.61996,6.5628 -1.20899,9.79297 -1.41148,7.73152 -6.04516,12.83429 -13.31055,15.62305 -5.53102,2.12122 -11.28585,2.89185 -17.22265,2.70703 -6.65382,0.20436 -13.03924,-1.19315 -19.21094,-3.71289 -3.3967,-1.38675 -6.01904,-3.39937 -6.10937,-7.46875 -0.0901,-4.04466 1.97096,-6.65803 5.40039,-8.59961 4.54571,-2.57208 9.25167,-5.00505 13.35742,-8.18359 10.98423,-8.50379 18.32571,-19.58598 21.92969,-33.07032 0.34686,-1.29804 0.67648,-2.63617 1.28515,-3.8164 1.23491,-2.39454 3.28124,-3.59659 5.35742,-3.52344 z m -230.63476,3.13086 c 2.55529,0.0878 5.11207,0.91434 7.33789,2.53125 5.93189,4.30813 7.24583,12.60717 2.9414,18.53906 -4.31176,5.92823 -12.61302,7.24364 -18.54492,2.93555 -5.93556,-4.30813 -7.25292,-12.60888 -2.9375,-18.53711 2.69259,-3.7097 6.94431,-5.6151 11.20313,-5.46875 z m 143.22656,9.71289 c 12.04815,0.0662 19.75991,10.41373 19.85742,20.24609 0.0895,9.00628 -6.89992,20.51781 -20.14062,20.37305 -13.20511,-0.144 -20.36998,-11.05918 -19.97657,-20.47851 -0.50902,-8.66306 6.70926,-20.21471 20.25977,-20.14063 z m -53.28906,20.97266 c 1.3173,0.0248 2.62308,0.32401 3.88476,1.07812 3.66943,2.19247 5.02498,6.40235 3.23828,10.51172 -1.12932,2.59824 -2.58914,5.05212 -3.71484,7.65039 -6.98903,16.11897 -7.25158,32.42736 -1.29297,48.90625 0.5483,1.5162 1.22365,3.16903 1.11328,4.70703 -0.34832,4.86924 -5.73877,7.61295 -10.01758,5.18555 -1.54454,-0.87696 -2.93309,-2.06526 -4.29296,-3.22656 -10.47304,-8.93938 -18.93019,-19.46769 -25.04297,-31.84375 -1.47984,-2.99532 -2.37394,-6.11363 -2.40039,-9.69141 0.13598,-3.9072 1.23136,-7.74118 3.6289,-11.13281 7.71334,-10.91222 18.01171,-18.16006 30.94336,-21.57422 1.30749,-0.34505 2.63582,-0.59513 3.95313,-0.57031 z m 45.87304,44.29101 c 2.01847,0.0817 4.01429,1.01581 5.88282,2.78125 2.92766,2.76771 5.75074,5.68288 8.9082,8.16407 11.59219,9.11244 24.93064,13.19687 39.58789,13.13867 v -0.002 c 1.64417,0 3.28891,-0.03 4.93164,0.008 3.19019,0.0727 4.90636,1.21457 5.83789,3.89648 0.9359,2.69643 0.3396,5.1912 -1.83398,6.89063 -2.9335,2.29356 -6.02768,4.43778 -9.26367,6.27539 -10.90935,6.19933 -22.66538,10.0918 -35.10547,11.52148 -6.25675,0.71773 -11.91728,-1.56414 -15.96485,-6.50976 -8.71392,-10.64758 -12.25952,-23.06662 -11.68359,-36.71094 0.13602,-3.21347 1.01952,-6.19451 4.00391,-8.08594 1.54523,-0.97924 3.1293,-1.43072 4.69921,-1.36719 z"
         transform="scale(0.26458333)"
         id="path5948"
         inkscape:connector-curvature="0"
         sodipodi:nodetypes="scccccccccccccccccscccccccccccccccccccccccccccccccccccccccccccccccccccccccccccccccccccccccccccccccccccccccccccccccccccccccccccccccccccccccccccccccccccccccccccssscsscccsccccccccccccccccccccccccccccccccccccccccccccccccccccccccsssccsccccccccccccccccccccccccccscccccccccccsccccccccccccccsccccsccccccccccccccccccsccccccccccccscccc" />
    </g>
    <text
       xml:space="preserve"
       style="font-style:normal;font-weight:normal;font-size:10.58333302px;line-height:1.25;font-family:sans-serif;letter-spacing:0px;word-spacing:0px;fill:#000000;fill-opacity:1;stroke:none;stroke-width:0.26458332"
       x="7.9375"
       y="24.479166"
       id="text6143"><tspan
         sodipodi:role="line"
         id="tspan6141"
         x="7.9375"
         y="24.479166"
         style="stroke-width:0.26458332;-inkscape-font-specification:'Arial Black, ';font-family:'Arial Black';font-weight:normal;font-style:normal;font-stretch:normal;font-variant:normal;font-size:25.4px">W</tspan></text>
    <text
       xml:space="preserve"
       style="font-style:normal;font-weight:normal;font-size:10.58333302px;line-height:1.25;font-family:sans-serif;letter-spacing:0px;word-spacing:0px;fill:#000000;fill-opacity:1;stroke:none;stroke-width:0.26458332"
       x="56.620831"
       y="22.364059"
       id="text6147"><tspan
         sodipodi:role="line"
         id="tspan6145"
         x="56.620831"
         y="22.364059"
         style="font-style:normal;font-variant:normal;font-weight:normal;font-stretch:normal;font-family:'Arial Black';-inkscape-font-specification:'Arial Black, ';stroke-width:0.26458332">pecker</tspan></text>
  </g>
</svg>
